<?xml version="1.0" standalone="no"?>
<!DOCTYPE svg PUBLIC "-//W3C//DTD SVG 20010904//EN"
 "http://www.w3.org/TR/2001/REC-SVG-20010904/DTD/svg10.dtd">
<svg version="1.0" xmlns="http://www.w3.org/2000/svg"
 width="512.000000pt" height="512.000000pt" viewBox="0 0 512.000000 512.000000"
 preserveAspectRatio="xMidYMid meet">

<g transform="translate(0.000000,512.000000) scale(0.100000,-0.100000)"
fill="#000000" stroke="none">
<path d="M2514 4994 c-50 -24 -54 -45 -54 -274 l0 -210 28 -31 c24 -26 36 -32
72 -32 36 0 48 6 72 32 l28 31 0 218 c0 208 -1 219 -21 241 -21 22 -59 41 -82
41 -7 0 -26 -7 -43 -16z"/>
<path d="M1208 4453 c-32 -20 -48 -52 -48 -95 0 -27 20 -52 143 -176 78 -79
155 -150 171 -159 76 -40 164 37 137 120 -11 33 -265 294 -308 316 -30 15 -63
13 -95 -6z"/>
<path d="M3669 4323 c-167 -164 -185 -194 -154 -252 22 -44 75 -66 119 -51 21
7 85 64 179 159 125 126 147 153 147 179 0 68 -44 112 -111 112 -27 0 -52 -20
-180 -147z"/>
<path d="M2397 4080 c-271 -43 -506 -166 -693 -361 -309 -324 -412 -775 -273
-1194 43 -127 109 -247 212 -383 165 -219 244 -361 312 -566 51 -153 76 -291
85 -477 8 -171 12 -190 50 -224 21 -19 37 -20 465 -20 478 0 480 0 505 54 8
15 16 95 21 186 19 397 130 684 408 1060 94 128 180 294 215 416 188 658 -211
1331 -883 1490 -98 24 -330 34 -424 19z m418 -230 c336 -92 599 -354 697 -696
20 -68 23 -102 23 -249 0 -146 -3 -182 -23 -255 -34 -124 -98 -249 -201 -388
-143 -193 -228 -340 -300 -519 -76 -187 -114 -347 -133 -550 l-12 -133 -306 0
-306 0 -12 133 c-22 243 -83 469 -186 682 -63 132 -112 210 -240 381 -108 143
-161 244 -202 379 -25 82 -28 105 -28 260 -1 149 2 180 22 250 106 367 397
642 762 720 100 22 342 14 445 -15z"/>
<path d="M657 3144 c-14 -14 -29 -38 -32 -54 -8 -38 18 -94 51 -109 16 -7 99
-11 234 -11 l210 0 31 28 c26 24 32 36 32 72 0 36 -6 48 -32 72 l-31 28 -219
0 -218 0 -26 -26z"/>
<path d="M3981 3154 c-13 -9 -29 -32 -37 -50 -12 -29 -12 -39 0 -68 27 -64 36
-66 277 -66 l216 0 26 26 c14 14 29 38 32 54 8 38 -18 94 -51 109 -16 7 -99
11 -232 11 -176 0 -211 -3 -231 -16z"/>
<path d="M2105 701 c-82 -35 -79 -159 5 -188 49 -17 851 -17 900 0 25 8 40 23
53 49 23 46 16 86 -19 119 l-26 24 -446 2 c-246 1 -456 -2 -467 -6z"/>
<path d="M2273 313 c-12 -2 -34 -18 -48 -34 -35 -42 -33 -89 4 -131 l29 -33
302 0 302 0 29 33 c39 44 39 90 0 134 l-29 33 -284 1 c-155 1 -293 0 -305 -3z"/>
</g>
</svg>
