<?xml version="1.0" standalone="no"?>
<!DOCTYPE svg PUBLIC "-//W3C//DTD SVG 20010904//EN"
 "http://www.w3.org/TR/2001/REC-SVG-20010904/DTD/svg10.dtd">
<svg version="1.0" xmlns="http://www.w3.org/2000/svg"
 width="240.000000pt" height="239.000000pt" viewBox="0 0 240.000000 239.000000"
 preserveAspectRatio="xMidYMid meet">

<g transform="translate(0.000000,239.000000) scale(0.100000,-0.100000)"
fill="#000000" stroke="none">
<path d="M886 2168 c-9 -12 -16 -27 -16 -33 0 -5 23 -47 50 -93 28 -46 50 -86
50 -90 0 -4 -22 -43 -50 -87 -55 -89 -59 -106 -30 -135 19 -19 33 -20 270 -20
l250 0 0 -106 0 -105 -242 -415 c-132 -228 -244 -411 -247 -408 -3 3 -55 81
-116 172 -99 151 -113 167 -141 170 -17 2 -36 -3 -42 -10 -6 -7 -105 -159
-221 -336 -210 -322 -229 -360 -199 -390 17 -17 1959 -17 1976 0 7 7 12 24 12
38 0 17 -127 249 -330 606 l-330 579 0 326 c0 303 -1 327 -18 342 -16 15 -53
17 -315 17 -294 0 -296 0 -311 -22z m524 -213 l0 -125 -185 0 c-102 0 -185 2
-185 5 0 3 14 27 30 53 17 27 30 55 30 63 0 8 -14 37 -30 64 -16 28 -30 53
-30 58 0 4 83 7 185 7 l185 0 0 -125z m344 -1074 c152 -266 276 -488 276 -493
0 -4 -378 -8 -841 -8 -669 0 -839 3 -833 13 55 89 297 453 303 455 4 1 58 -74
119 -168 61 -94 118 -173 127 -176 45 -18 56 -2 290 398 255 438 275 471 280
466 1 -1 127 -221 279 -487z"/>
</g>
</svg>
