<?xml version="1.0" standalone="no"?>
<!DOCTYPE svg PUBLIC "-//W3C//DTD SVG 20010904//EN"
 "http://www.w3.org/TR/2001/REC-SVG-20010904/DTD/svg10.dtd">
<svg version="1.0" xmlns="http://www.w3.org/2000/svg"
 width="500.000000pt" height="500.000000pt" viewBox="0 0 500.000000 500.000000"
 preserveAspectRatio="xMidYMid meet">

<g transform="translate(0.000000,500.000000) scale(0.100000,-0.100000)"
fill="#000000" stroke="none">
<path d="M675 4360 c-38 -11 -72 -19 -76 -19 -3 -1 -32 -18 -65 -40 -100 -65
-172 -160 -200 -263 -20 -78 -20 -1748 0 -1826 41 -154 168 -274 335 -319 79
-21 107 -23 334 -23 l247 0 0 -300 c0 -214 3 -300 11 -300 9 0 87 54 149 103
8 7 49 37 90 67 41 30 77 57 80 60 3 3 21 17 40 30 19 13 37 27 40 30 4 5 129
98 209 156 40 29 115 87 121 95 3 3 23 18 45 32 l40 27 454 0 c423 0 459 1
541 21 134 31 236 106 305 223 56 95 55 79 55 1006 0 808 -1 859 -19 923 -23
84 -77 164 -150 224 -70 57 -95 70 -189 93 -74 19 -119 20 -1202 19 -1063 -1
-1129 -2 -1195 -19z m2363 -315 c44 -20 55 -32 72 -70 19 -45 20 -72 20 -851
l0 -805 -24 -48 c-21 -40 -34 -52 -75 -70 -49 -21 -60 -21 -553 -21 -462 0
-505 -2 -530 -18 -24 -16 -331 -245 -370 -278 -17 -13 -18 -5 -18 141 l0 155
-396 0 c-382 0 -397 1 -445 21 -41 18 -54 30 -75 70 l-24 48 0 806 0 806 24
48 c20 39 34 52 73 69 48 21 49 21 1158 22 l1110 0 53 -25z"/>
<path d="M3752 3278 l3 -153 265 -5 c236 -4 269 -7 294 -23 58 -38 56 -13 56
-915 l0 -829 -23 -34 c-46 -69 -45 -69 -499 -69 l-407 0 -3 -155 -3 -156 -80
60 c-123 91 -239 179 -250 188 -5 5 -28 21 -50 36 l-40 27 -508 0 c-488 0
-509 1 -547 20 -22 11 -44 29 -50 40 -12 23 -33 26 -52 7 -7 -7 -57 -46 -110
-85 -54 -40 -98 -79 -98 -88 0 -15 105 -124 120 -124 5 0 15 -6 22 -13 7 -8
40 -25 73 -38 l60 -24 494 -3 494 -3 46 -31 c49 -34 123 -89 131 -99 3 -3 12
-10 21 -15 9 -5 32 -21 50 -36 47 -37 436 -329 463 -348 12 -8 41 -30 63 -47
23 -18 46 -33 52 -33 8 0 11 89 11 304 l0 304 288 4 c274 4 290 5 347 27 33
13 66 30 73 38 7 7 17 13 21 13 16 0 108 97 138 145 65 105 63 70 63 1024 0
942 2 910 -57 1010 -58 99 -149 173 -258 211 -53 18 -84 20 -337 20 l-279 0 3
-152z"/>
</g>
</svg>
